<svg xmlns="http://www.w3.org/2000/svg" xmlns:xlink="http://www.w3.org/1999/xlink" width="96" zoomAndPan="magnify" viewBox="0 0 72 72" height="96" preserveAspectRatio="xMidYMid meet" version="1.0"><defs><g/></defs><path fill="#000000" d="M 36 0 C 16.117188 0 0 16.117188 0 36 C 0 55.882812 16.117188 72 36 72 C 55.882812 72 72 55.882812 72 36 C 72 16.117188 55.882812 0 36 0 " fill-opacity="1" fill-rule="nonzero"/><g fill="#ffffff" fill-opacity="1"><g transform="translate(8.51634, 65.793932)"><g><path d="M 22.019531 -59.234375 C 12.375 -59.234375 1.730469 -57.871094 1.183594 -45.585938 C 0.273438 -26.660156 30.027344 -30.480469 31.027344 -12.191406 C 30.753906 -4.09375 25.203125 -2.546875 18.199219 -2.367188 L 17.925781 -3.367188 C 21.199219 -5.1875 23.382812 -7.734375 23.292969 -13.011719 C 23.113281 -28.480469 2.546875 -25.75 2.546875 -25.75 L 2.640625 -0.0898438 L 36.761719 -0.0898438 C 47.496094 -0.0898438 51.957031 -6.734375 53.046875 -13.285156 C 54.320312 -20.925781 50.410156 -26.570312 42.039062 -31.210938 C 35.851562 -34.667969 24.386719 -39.035156 24.660156 -47.679688 C 24.839844 -55.230469 32.121094 -57.597656 38.671875 -57.234375 L 38.851562 -56.230469 C 35.667969 -54.503906 33.210938 -52.226562 33.300781 -47.042969 C 33.484375 -32.390625 52.957031 -35.03125 52.957031 -35.03125 L 52.863281 -59.234375 Z M 22.019531 -59.234375 "/></g></g></g></svg>