<svg xmlns="http://www.w3.org/2000/svg" xmlns:xlink="http://www.w3.org/1999/xlink" width="96" zoomAndPan="magnify" viewBox="0 0 72 72" height="96" preserveAspectRatio="xMidYMid meet" version="1.0"><defs><g/></defs><rect x="-7.2" width="86.4" fill="#ffffff" y="-7.2" height="86.4" fill-opacity="1"/><rect x="-7.2" width="86.4" fill="#ffffff" y="-7.2" height="86.4" fill-opacity="1"/><rect x="-7.2" width="86.4" fill="#ffffff" y="-7.2" height="86.4" fill-opacity="1"/><rect x="-7.2" width="86.4" fill="#ffffff" y="-7.2" height="86.4" fill-opacity="1"/><path fill="#000000" d="M 36 0 C 16.117188 0 0 16.117188 0 36 C 0 55.882812 16.117188 72 36 72 C 55.882812 72 72 55.882812 72 36 C 72 16.117188 55.882812 0 36 0 " fill-opacity="1" fill-rule="nonzero"/><g fill="#2946bf" fill-opacity="1"><g transform="translate(0.755859, 48.955234)"><g><path d="M 10.9375 0.300781 L 12.03125 0.414062 L 13.238281 0.378906 L 16.933594 -0.339844 L 18.894531 -1.394531 L 20.101562 -2.226562 L 21.160156 -3.433594 L 21.914062 -4.640625 L 22.214844 -5.316406 L 22.441406 -6.074219 L 22.554688 -6.75 L 22.59375 -9.089844 L 22.480469 -9.84375 L 22.292969 -10.5625 L 21.535156 -11.957031 L 20.632812 -13.125 L 19.992188 -13.652344 L 17.992188 -14.558594 L 14.898438 -15.3125 L 11.089844 -15.804688 L 9.503906 -16.371094 L 8.9375 -16.671875 L 8.335938 -17.273438 L 8.296875 -18.292969 L 8.410156 -19.273438 L 8.824219 -19.800781 L 9.46875 -20.292969 L 9.996094 -20.519531 L 10.675781 -20.667969 L 13.089844 -20.746094 L 13.917969 -20.441406 L 14.484375 -19.992188 L 15.726562 -18.671875 L 16.898438 -18.292969 L 19.386719 -18.21875 L 20.066406 -18.292969 L 20.78125 -18.21875 L 21.5 -18.671875 L 21.839844 -19.386719 L 21.535156 -20.859375 L 20.933594 -22.214844 L 20.441406 -22.820312 L 20.066406 -23.421875 L 19.574219 -23.988281 L 17.160156 -25.648438 L 15.085938 -26.363281 L 14.296875 -26.515625 L 13.617188 -26.589844 L 12.785156 -26.78125 L 10.675781 -26.742188 L 7.695312 -26.136719 L 7.015625 -25.875 L 6.410156 -25.496094 L 5.808594 -25.269531 L 5.054688 -24.816406 L 4.527344 -24.328125 L 3.847656 -23.875 L 3.433594 -23.234375 L 2.941406 -22.742188 L 2.679688 -22.066406 L 2.300781 -21.460938 L 1.773438 -19.273438 L 1.808594 -16.746094 L 2.074219 -15.691406 L 2.566406 -14.371094 L 3.507812 -13.125 L 4.5625 -12.144531 L 5.882812 -11.351562 L 8.035156 -10.636719 L 9.390625 -10.335938 L 12.484375 -10.109375 L 13.164062 -9.996094 L 13.917969 -9.957031 L 15.277344 -9.390625 L 15.804688 -8.9375 L 15.992188 -7.957031 L 15.765625 -6.976562 L 15.164062 -6.449219 L 14.558594 -6.109375 L 13.164062 -5.695312 L 12.105469 -5.65625 L 10.976562 -5.734375 L 10.109375 -5.960938 L 9.542969 -6.222656 L 8.863281 -6.636719 L 8.296875 -7.167969 L 7.730469 -7.921875 L 6.976562 -8.222656 L 4.109375 -8.296875 L 3.355469 -8.222656 L 2.601562 -8.261719 L 1.847656 -7.921875 L 1.585938 -7.128906 L 1.660156 -6.296875 L 1.808594 -5.621094 L 2.414062 -4.109375 L 3.355469 -2.941406 L 4.449219 -1.847656 L 5.09375 -1.433594 L 7.808594 -0.1875 L 8.636719 -0.0742188 L 9.355469 0.1875 Z M 10.9375 0.300781 "/></g></g></g><g fill="#2946bf" fill-opacity="1"><g transform="translate(24.815459, 48.955234)"><g><path d="M 2.828125 -1.09375 L 3.167969 -0.414062 L 4.375 0.0390625 L 17.726562 -0.0390625 L 18.785156 -0.414062 L 19.199219 -1.09375 L 19.121094 -1.921875 L 19.160156 -2.679688 L 19.234375 -3.355469 L 19.121094 -4.1875 L 19.234375 -4.902344 L 18.746094 -5.734375 L 18.140625 -6.109375 L 17.3125 -5.996094 L 10.675781 -6.074219 L 9.882812 -6.410156 L 9.65625 -7.242188 L 9.695312 -8.636719 L 9.582031 -9.355469 L 9.617188 -10.183594 L 9.542969 -10.9375 L 9.617188 -11.730469 L 9.582031 -13.617188 L 9.695312 -14.671875 L 9.582031 -15.5 L 9.695312 -16.292969 L 9.582031 -22.179688 L 9.65625 -23.007812 L 9.582031 -24.855469 L 9.203125 -25.988281 L 8.222656 -26.441406 L 4.300781 -26.363281 L 3.207031 -25.949219 L 2.714844 -24.929688 L 2.941406 -22.96875 L 2.867188 -22.253906 L 2.753906 -21.460938 L 2.867188 -20.707031 L 2.941406 -19.992188 L 2.828125 -19.160156 L 2.867188 -18.445312 L 2.792969 -17.691406 L 2.902344 -16.898438 L 2.792969 -16.21875 L 2.867188 -15.464844 L 2.753906 -14.746094 L 2.867188 -13.125 L 2.753906 -12.410156 L 2.867188 -10.898438 L 2.753906 -10.144531 L 2.792969 -8.636719 L 2.867188 -7.957031 L 2.828125 -3.355469 L 2.902344 -2.601562 L 2.753906 -1.886719 Z M 2.828125 -1.09375 "/></g></g></g><g fill="#2946bf" fill-opacity="1"><g transform="translate(45.103957, 48.955234)"><g><path d="M 2.902344 -1.207031 L 3.167969 -0.378906 L 3.921875 0 L 4.640625 0.0390625 L 6.1875 -0.0742188 L 6.976562 0 L 8.109375 0 L 9.277344 -0.378906 L 9.542969 -1.09375 L 9.617188 -1.886719 L 9.46875 -2.679688 L 9.582031 -4.300781 L 9.503906 -6.636719 L 9.84375 -7.394531 L 10.597656 -7.769531 L 11.277344 -7.769531 L 11.957031 -7.808594 L 12.898438 -7.503906 L 13.503906 -6.863281 L 14.484375 -5.542969 L 14.746094 -4.828125 L 15.804688 -2.941406 L 16.292969 -2.226562 L 16.632812 -1.585938 L 17.085938 -0.980469 L 17.839844 -0.300781 L 18.785156 -0.0742188 L 20.140625 0 L 20.972656 -0.0742188 L 21.726562 0 L 23.234375 0 L 24.0625 -0.0742188 L 24.855469 -0.265625 L 25.007812 -1.054688 L 24.515625 -2 L 23.308594 -3.847656 L 22.96875 -4.488281 L 22.515625 -5.167969 L 22.140625 -5.847656 L 21.648438 -6.449219 L 20.519531 -8.410156 L 20.40625 -9.316406 L 20.820312 -10.109375 L 21.875 -11.125 L 22.328125 -11.769531 L 22.59375 -12.484375 L 23.007812 -13.164062 L 23.273438 -13.804688 L 23.6875 -15.238281 L 23.722656 -18.21875 L 23.535156 -18.933594 L 23.421875 -19.652344 L 23.234375 -20.40625 L 22.214844 -22.480469 L 21.6875 -23.046875 L 21.347656 -23.609375 L 19.460938 -25.042969 L 18.140625 -25.722656 L 15.011719 -26.363281 L 14.070312 -26.441406 L 12.976562 -26.402344 L 12.144531 -26.441406 L 11.390625 -26.363281 L 10.5625 -26.441406 L 9.917969 -26.363281 L 7.65625 -26.441406 L 6.941406 -26.328125 L 5.394531 -26.476562 L 4.675781 -26.363281 L 3.847656 -26.402344 L 3.128906 -26.0625 L 2.828125 -25.269531 L 2.714844 -14.710938 L 2.828125 -13.617188 L 2.828125 -11.730469 L 2.753906 -10.9375 L 2.714844 -9.503906 L 2.828125 -8.675781 L 2.714844 -7.128906 L 2.867188 -4.941406 L 2.792969 -4.148438 Z M 10.597656 -13.878906 L 9.957031 -14.21875 L 9.582031 -15.011719 L 9.46875 -19.234375 L 9.917969 -19.992188 L 10.675781 -20.367188 L 11.277344 -20.40625 L 13.351562 -20.367188 L 15.085938 -20.140625 L 16.257812 -19.425781 L 16.632812 -18.859375 L 16.898438 -18.253906 L 16.972656 -17.160156 L 16.859375 -16.144531 L 16.558594 -15.390625 L 16.144531 -14.746094 L 15.691406 -14.296875 L 15.125 -14.03125 L 12.183594 -13.765625 L 11.429688 -13.878906 Z M 10.597656 -13.878906 "/></g></g></g><g fill="#ffffff" fill-opacity="1"><g transform="translate(-0.519111, 48.955234)"><g><path d="M 10.9375 0.300781 L 12.03125 0.414062 L 13.238281 0.378906 L 16.933594 -0.339844 L 18.894531 -1.394531 L 20.101562 -2.226562 L 21.160156 -3.433594 L 21.914062 -4.640625 L 22.214844 -5.316406 L 22.441406 -6.074219 L 22.554688 -6.75 L 22.59375 -9.089844 L 22.480469 -9.84375 L 22.292969 -10.5625 L 21.535156 -11.957031 L 20.632812 -13.125 L 19.992188 -13.652344 L 17.992188 -14.558594 L 14.898438 -15.3125 L 11.089844 -15.804688 L 9.503906 -16.371094 L 8.9375 -16.671875 L 8.335938 -17.273438 L 8.296875 -18.292969 L 8.410156 -19.273438 L 8.824219 -19.800781 L 9.46875 -20.292969 L 9.996094 -20.519531 L 10.675781 -20.667969 L 13.089844 -20.746094 L 13.917969 -20.441406 L 14.484375 -19.992188 L 15.726562 -18.671875 L 16.898438 -18.292969 L 19.386719 -18.21875 L 20.066406 -18.292969 L 20.78125 -18.21875 L 21.5 -18.671875 L 21.839844 -19.386719 L 21.535156 -20.859375 L 20.933594 -22.214844 L 20.441406 -22.820312 L 20.066406 -23.421875 L 19.574219 -23.988281 L 17.160156 -25.648438 L 15.085938 -26.363281 L 14.296875 -26.515625 L 13.617188 -26.589844 L 12.785156 -26.78125 L 10.675781 -26.742188 L 7.695312 -26.136719 L 7.015625 -25.875 L 6.410156 -25.496094 L 5.808594 -25.269531 L 5.054688 -24.816406 L 4.527344 -24.328125 L 3.847656 -23.875 L 3.433594 -23.234375 L 2.941406 -22.742188 L 2.679688 -22.066406 L 2.300781 -21.460938 L 1.773438 -19.273438 L 1.808594 -16.746094 L 2.074219 -15.691406 L 2.566406 -14.371094 L 3.507812 -13.125 L 4.5625 -12.144531 L 5.882812 -11.351562 L 8.035156 -10.636719 L 9.390625 -10.335938 L 12.484375 -10.109375 L 13.164062 -9.996094 L 13.917969 -9.957031 L 15.277344 -9.390625 L 15.804688 -8.9375 L 15.992188 -7.957031 L 15.765625 -6.976562 L 15.164062 -6.449219 L 14.558594 -6.109375 L 13.164062 -5.695312 L 12.105469 -5.65625 L 10.976562 -5.734375 L 10.109375 -5.960938 L 9.542969 -6.222656 L 8.863281 -6.636719 L 8.296875 -7.167969 L 7.730469 -7.921875 L 6.976562 -8.222656 L 4.109375 -8.296875 L 3.355469 -8.222656 L 2.601562 -8.261719 L 1.847656 -7.921875 L 1.585938 -7.128906 L 1.660156 -6.296875 L 1.808594 -5.621094 L 2.414062 -4.109375 L 3.355469 -2.941406 L 4.449219 -1.847656 L 5.09375 -1.433594 L 7.808594 -0.1875 L 8.636719 -0.0742188 L 9.355469 0.1875 Z M 10.9375 0.300781 "/></g></g></g><g fill="#ffffff" fill-opacity="1"><g transform="translate(23.540489, 48.955234)"><g><path d="M 2.828125 -1.09375 L 3.167969 -0.414062 L 4.375 0.0390625 L 17.726562 -0.0390625 L 18.785156 -0.414062 L 19.199219 -1.09375 L 19.121094 -1.921875 L 19.160156 -2.679688 L 19.234375 -3.355469 L 19.121094 -4.1875 L 19.234375 -4.902344 L 18.746094 -5.734375 L 18.140625 -6.109375 L 17.3125 -5.996094 L 10.675781 -6.074219 L 9.882812 -6.410156 L 9.65625 -7.242188 L 9.695312 -8.636719 L 9.582031 -9.355469 L 9.617188 -10.183594 L 9.542969 -10.9375 L 9.617188 -11.730469 L 9.582031 -13.617188 L 9.695312 -14.671875 L 9.582031 -15.5 L 9.695312 -16.292969 L 9.582031 -22.179688 L 9.65625 -23.007812 L 9.582031 -24.855469 L 9.203125 -25.988281 L 8.222656 -26.441406 L 4.300781 -26.363281 L 3.207031 -25.949219 L 2.714844 -24.929688 L 2.941406 -22.96875 L 2.867188 -22.253906 L 2.753906 -21.460938 L 2.867188 -20.707031 L 2.941406 -19.992188 L 2.828125 -19.160156 L 2.867188 -18.445312 L 2.792969 -17.691406 L 2.902344 -16.898438 L 2.792969 -16.21875 L 2.867188 -15.464844 L 2.753906 -14.746094 L 2.867188 -13.125 L 2.753906 -12.410156 L 2.867188 -10.898438 L 2.753906 -10.144531 L 2.792969 -8.636719 L 2.867188 -7.957031 L 2.828125 -3.355469 L 2.902344 -2.601562 L 2.753906 -1.886719 Z M 2.828125 -1.09375 "/></g></g></g><g fill="#ffffff" fill-opacity="1"><g transform="translate(43.828987, 48.955234)"><g><path d="M 2.902344 -1.207031 L 3.167969 -0.378906 L 3.921875 0 L 4.640625 0.0390625 L 6.1875 -0.0742188 L 6.976562 0 L 8.109375 0 L 9.277344 -0.378906 L 9.542969 -1.09375 L 9.617188 -1.886719 L 9.46875 -2.679688 L 9.582031 -4.300781 L 9.503906 -6.636719 L 9.84375 -7.394531 L 10.597656 -7.769531 L 11.277344 -7.769531 L 11.957031 -7.808594 L 12.898438 -7.503906 L 13.503906 -6.863281 L 14.484375 -5.542969 L 14.746094 -4.828125 L 15.804688 -2.941406 L 16.292969 -2.226562 L 16.632812 -1.585938 L 17.085938 -0.980469 L 17.839844 -0.300781 L 18.785156 -0.0742188 L 20.140625 0 L 20.972656 -0.0742188 L 21.726562 0 L 23.234375 0 L 24.0625 -0.0742188 L 24.855469 -0.265625 L 25.007812 -1.054688 L 24.515625 -2 L 23.308594 -3.847656 L 22.96875 -4.488281 L 22.515625 -5.167969 L 22.140625 -5.847656 L 21.648438 -6.449219 L 20.519531 -8.410156 L 20.40625 -9.316406 L 20.820312 -10.109375 L 21.875 -11.125 L 22.328125 -11.769531 L 22.59375 -12.484375 L 23.007812 -13.164062 L 23.273438 -13.804688 L 23.6875 -15.238281 L 23.722656 -18.21875 L 23.535156 -18.933594 L 23.421875 -19.652344 L 23.234375 -20.40625 L 22.214844 -22.480469 L 21.6875 -23.046875 L 21.347656 -23.609375 L 19.460938 -25.042969 L 18.140625 -25.722656 L 15.011719 -26.363281 L 14.070312 -26.441406 L 12.976562 -26.402344 L 12.144531 -26.441406 L 11.390625 -26.363281 L 10.5625 -26.441406 L 9.917969 -26.363281 L 7.65625 -26.441406 L 6.941406 -26.328125 L 5.394531 -26.476562 L 4.675781 -26.363281 L 3.847656 -26.402344 L 3.128906 -26.0625 L 2.828125 -25.269531 L 2.714844 -14.710938 L 2.828125 -13.617188 L 2.828125 -11.730469 L 2.753906 -10.9375 L 2.714844 -9.503906 L 2.828125 -8.675781 L 2.714844 -7.128906 L 2.867188 -4.941406 L 2.792969 -4.148438 Z M 10.597656 -13.878906 L 9.957031 -14.21875 L 9.582031 -15.011719 L 9.46875 -19.234375 L 9.917969 -19.992188 L 10.675781 -20.367188 L 11.277344 -20.40625 L 13.351562 -20.367188 L 15.085938 -20.140625 L 16.257812 -19.425781 L 16.632812 -18.859375 L 16.898438 -18.253906 L 16.972656 -17.160156 L 16.859375 -16.144531 L 16.558594 -15.390625 L 16.144531 -14.746094 L 15.691406 -14.296875 L 15.125 -14.03125 L 12.183594 -13.765625 L 11.429688 -13.878906 Z M 10.597656 -13.878906 "/></g></g></g></svg>